<svg viewBox="0 0 400 400" xmlns="http://www.w3.org/2000/svg" role="img" aria-label="Cumbia Kiz - Marche 2026">
  <title>Cumbia Kiz</title>
  <defs>
    <linearGradient id="verde" x1="0" y1="0" x2="1" y2="1">
      <stop offset="0" stop-color="#34d399"/>
      <stop offset="0.5" stop-color="#22c55e"/>
      <stop offset="1" stop-color="#a3e635"/>
    </linearGradient>
    <radialGradient id="glow" cx="0.5" cy="0.30" r="0.9">
      <stop offset="0" stop-color="#0e3d2e"/>
      <stop offset="1" stop-color="#06221a"/>
    </radialGradient>
  </defs>

  <rect x="0" y="0" width="400" height="400" rx="76" fill="url(#glow)"/>
  <rect x="10" y="10" width="380" height="380" rx="66" fill="none" stroke="url(#verde)" stroke-width="4" opacity="0.65"/>
  <rect x="24" y="24" width="352" height="352" rx="54" fill="none" stroke="url(#verde)" stroke-width="1" opacity="0.3"/>

  <circle cx="200" cy="130" r="78" fill="none" stroke="url(#verde)" stroke-width="1.5" opacity="0.35"/>

  <g fill="url(#verde)">
    <path d="M128 150 l4 8 l-4 8 l-4 -8 Z" opacity="0.85"/>
    <path d="M272 150 l4 8 l-4 8 l-4 -8 Z" opacity="0.85"/>
    <circle cx="174" cy="100" r="18"/>
    <path d="M154 124 Q174 115 194 124 L201 176 Q174 187 147 176 Z"/>
    <circle cx="226" cy="100" r="18"/>
    <path d="M206 124 Q226 115 246 124 L253 176 Q226 187 199 176 Z"/>
  </g>

  <text x="200" y="252" text-anchor="middle" font-family="Segoe UI, Arial, sans-serif" font-weight="800" font-size="34" letter-spacing="7" fill="#ecfdf5">CUMBIA</text>
  <text x="200" y="312" text-anchor="middle" font-family="Segoe UI, Arial, sans-serif" font-weight="900" font-size="60" letter-spacing="8" fill="url(#verde)">KIZ</text>
  <line x1="152" y1="334" x2="248" y2="334" stroke="url(#verde)" stroke-width="2.5" stroke-linecap="round"/>
  <text x="200" y="364" text-anchor="middle" font-family="Segoe UI, Arial, sans-serif" font-weight="700" font-size="14" letter-spacing="7" fill="#9fd8bf">MARCHE · 2026</text>
</svg>
